<?xml version="1.0" standalone="no"?>
<!DOCTYPE svg PUBLIC "-//W3C//DTD SVG 20010904//EN"
 "http://www.w3.org/TR/2001/REC-SVG-20010904/DTD/svg10.dtd">
<svg version="1.0" xmlns="http://www.w3.org/2000/svg"
 width="356.000000pt" height="356.000000pt" viewBox="0 0 356.000000 356.000000"
 preserveAspectRatio="xMidYMid meet">
<metadata>
Created by potrace 1.14, written by Peter Selinger 2001-2017
</metadata>
<g transform="translate(0.000000,356.000000) scale(0.100000,-0.100000)"
fill="#000000" stroke="none">
<path d="M823 3535 c-10 -22 -9 -25 5 -23 9 2 16 -2 15 -9 -2 -7 4 -10 12 -7
18 7 20 -12 3 -19 -10 -4 -10 -8 1 -15 12 -9 13 -13 1 -27 -10 -13 -15 -13
-22 -3 -5 9 -7 5 -6 -11 2 -13 -3 -26 -11 -29 -8 -3 -11 0 -7 7 13 20 -3 12
-33 -19 -17 -16 -26 -32 -21 -35 15 -9 12 -41 -5 -55 -8 -7 -15 -25 -15 -41 0
-28 -22 -59 -43 -59 -8 0 -7 -3 2 -9 9 -6 0 -11 -30 -16 -24 -4 -51 -12 -59
-17 -11 -7 -9 -8 8 -4 40 8 13 -8 -31 -19 -37 -10 -43 -16 -57 -56 -9 -24 -14
-51 -12 -58 3 -9 0 -11 -9 -7 -8 4 -6 1 4 -7 10 -8 20 -28 23 -43 3 -16 9 -31
13 -34 9 -6 7 -74 -4 -115 -9 -34 -51 -83 -61 -72 -4 4 -16 0 -26 -10 -11 -9
-18 -11 -18 -5 0 7 5 12 10 12 6 0 10 5 10 11 0 6 -7 9 -15 5 -8 -3 -15 0 -16
7 0 7 -9 -6 -20 -28 -11 -24 -17 -30 -14 -15 5 21 4 22 -5 8 -14 -22 3 -58 28
-58 14 -1 14 -2 -3 -12 -11 -6 -34 -26 -50 -44 -29 -32 -32 -33 -69 -23 -21 6
-40 8 -44 5 -3 -3 0 -6 6 -6 7 0 12 -6 12 -14 0 -8 9 -17 19 -21 23 -7 34 -32
19 -41 -6 -4 -19 2 -28 14 -13 16 -36 23 -96 31 -71 9 -84 8 -131 -11 l-53
-22 0 -103 c0 -93 8 -137 30 -153 3 -3 16 -22 29 -42 12 -21 27 -38 32 -38 5
0 9 -4 9 -10 0 -12 37 -50 49 -50 5 0 11 -6 14 -14 3 -8 17 -20 32 -28 14 -7
59 -35 101 -62 41 -26 88 -49 104 -50 41 -2 58 -21 42 -46 -8 -13 -9 -20 -1
-20 5 0 8 -4 4 -10 -7 -11 -52 4 -75 25 -8 7 -26 15 -40 17 -14 1 -32 11 -40
21 -16 19 -49 15 -51 -7 -1 -6 -2 -31 -4 -56 -1 -25 -3 -49 -5 -55 -1 -5 -1
-37 0 -70 1 -33 4 -52 7 -42 10 38 23 14 23 -42 0 -33 5 -63 10 -66 6 -3 10
-2 10 3 0 5 11 12 24 14 18 4 23 1 19 -10 -5 -11 -1 -13 15 -8 15 5 24 1 31
-13 15 -27 50 -23 57 6 6 23 34 33 34 12 0 -5 4 -8 9 -5 5 4 12 -7 16 -24 9
-41 25 -48 25 -11 0 16 -5 33 -11 36 -6 5 -4 12 8 21 22 17 49 18 59 2 4 -6 3
-8 -3 -5 -21 13 -35 -42 -36 -144 -1 -130 11 -289 23 -304 6 -7 7 -15 4 -18
-10 -10 16 -197 37 -272 11 -38 21 -80 22 -92 1 -11 14 -33 29 -47 16 -14 28
-31 28 -39 0 -18 29 -116 41 -139 15 -29 -2 -21 -38 18 -18 20 -30 40 -27 45
3 5 0 9 -7 9 -7 0 -9 3 -6 7 8 7 -28 70 -56 97 -11 11 -18 15 -16 10 3 -5 17
-36 32 -69 15 -32 29 -76 30 -96 1 -21 6 -37 12 -36 5 1 9 -3 10 -10 0 -6 3
-15 8 -19 4 -4 7 -16 7 -26 0 -10 5 -18 10 -18 6 0 10 -4 10 -10 0 -5 -7 -10
-15 -10 -8 0 -15 5 -15 10 0 6 -7 10 -16 10 -11 0 -14 -6 -9 -20 9 -28 1 -25
-20 7 -15 23 -16 25 -1 20 10 -4 20 1 27 14 10 19 9 20 -11 9 -27 -14 -54 -5
-46 16 3 9 2 12 -5 9 -6 -4 -13 2 -16 14 -3 12 -10 21 -16 21 -6 0 -8 3 -4 6
8 8 67 -37 61 -47 -3 -5 1 -6 9 -3 11 4 6 22 -25 84 -21 43 -45 84 -53 90 -8
7 -15 19 -15 27 0 23 -59 73 -85 73 -14 0 -25 7 -28 18 -4 15 -5 15 -6 0 -1
-20 54 -161 81 -205 11 -19 15 -33 9 -33 -7 0 -14 7 -17 15 -4 8 -12 15 -19
15 -7 0 -16 6 -18 13 -3 6 -6 -1 -6 -18 0 -16 6 -41 14 -55 22 -38 47 -93 50
-110 1 -8 8 -14 14 -12 6 1 11 -5 11 -14 0 -15 9 -14 60 4 13 5 13 3 1 -11
-15 -19 -71 -23 -71 -6 0 6 -7 8 -17 5 -10 -4 -14 -4 -10 0 4 4 2 13 -4 21 -6
7 -8 13 -4 13 4 0 -4 11 -18 24 -15 14 -34 44 -43 67 -13 32 -26 46 -58 60
l-41 18 -6 -47 -6 -47 -3 40 c-1 22 -2 43 -1 48 0 4 -6 7 -14 7 -18 0 -20 17
-3 23 7 2 10 8 6 12 -4 4 -25 -12 -48 -36 l-41 -44 6 41 c10 65 -8 59 -48 -17
-21 -38 -35 -69 -31 -69 4 0 -3 -8 -14 -19 -12 -10 -22 -23 -22 -29 0 -5 -9
-12 -19 -15 -13 -3 -18 0 -15 8 3 7 -2 15 -10 18 -9 4 -15 3 -14 -1 1 -4 -3
-16 -9 -27 -7 -13 -11 -100 -12 -243 l-2 -222 591 0 c555 0 590 1 590 18 1 16
1 16 11 0 9 -16 26 -18 133 -18 l124 0 -16 48 c-8 26 -17 53 -18 60 -2 6 -16
12 -31 12 -26 1 -63 20 -63 33 0 4 12 2 26 -3 37 -14 64 -12 64 5 0 8 8 16 18
16 9 1 30 3 45 5 22 2 30 -2 38 -23 5 -14 7 -34 4 -44 -5 -14 1 -22 19 -31 14
-6 26 -18 26 -27 -1 -14 -2 -14 -11 1 -5 10 -16 15 -25 11 -9 -3 -19 0 -24 6
-5 9 -9 8 -13 -4 -4 -9 -3 -13 3 -10 6 3 11 -6 11 -22 2 -23 2 -24 6 -5 6 29
16 28 33 -3 l13 -25 1004 0 1003 0 0 660 c0 471 -4 660 -12 660 -7 0 -6 5 2
15 8 10 9 15 2 15 -7 0 -9 8 -5 18 6 15 5 15 -10 3 -15 -11 -17 -11 -17 2 0 8
-18 46 -40 85 -22 38 -40 76 -40 85 0 9 -4 18 -9 22 -5 3 -12 19 -16 35 -4 17
-10 30 -13 30 -8 0 -44 85 -46 109 -1 9 -10 37 -20 63 -16 41 -17 50 -5 65 9
10 9 14 2 10 -15 -9 -20 13 -26 111 -3 57 -2 70 8 62 14 -12 40 -84 51 -145 4
-22 17 -62 29 -90 12 -27 29 -77 39 -110 10 -33 36 -98 58 -145 22 -47 45 -96
52 -109 9 -19 12 9 14 140 1 90 0 173 -2 184 -3 11 -30 50 -60 87 -30 37 -58
78 -62 92 -3 13 -11 27 -18 29 -7 3 -19 24 -26 48 -8 24 -23 60 -32 79 -10 19
-18 40 -18 47 0 7 -9 13 -20 13 -11 0 -20 4 -20 8 0 5 -11 14 -25 20 -29 13
-33 5 -7 -14 15 -12 12 -14 -28 -15 -52 -2 -82 0 -88 6 -12 12 10 54 31 57 14
2 21 9 20 21 0 11 4 16 12 13 14 -5 35 12 35 29 0 6 -12 16 -27 23 l-28 12 27
-5 c15 -3 30 -1 33 5 4 6 -7 10 -25 10 -17 0 -29 4 -25 9 3 6 -1 15 -8 22 -21
20 -9 59 19 59 27 0 42 -19 24 -30 -8 -5 -6 -9 7 -12 10 -3 26 -9 36 -13 10
-4 17 -3 17 5 0 6 -4 8 -10 5 -5 -3 -10 -4 -10 -1 0 17 40 25 64 12 29 -15 24
-26 -13 -27 l-26 -1 25 -7 c14 -4 33 -5 43 -3 22 6 24 52 1 52 -13 0 -14 3 -4
15 10 11 9 18 -4 30 -9 9 -16 25 -16 35 0 24 -9 29 -51 32 -41 3 -49 12 -49
62 0 27 -4 37 -13 33 -8 -3 -14 5 -15 21 -1 14 -6 28 -10 31 -7 5 -23 51 -36
106 -3 13 3 26 18 37 23 17 24 17 19 -1 -2 -10 0 -36 6 -59 11 -40 12 -41 49
-35 44 8 60 21 56 48 -2 11 2 25 7 32 6 7 8 16 5 22 -3 5 0 12 6 14 7 3 -4 6
-24 6 -47 1 -56 16 -26 42 20 18 23 19 26 5 4 -19 18 -21 28 -5 3 6 0 15 -7
20 -12 7 -11 9 2 9 8 0 20 -5 26 -11 6 -6 16 -8 22 -5 15 10 14 73 -1 79 -10
4 -10 6 0 6 8 1 6 8 -8 23 -11 12 -20 29 -20 38 0 9 -4 20 -9 25 -5 6 -25 39
-43 75 -51 97 -78 139 -98 150 -18 10 -227 16 -236 7 -4 -3 5 -21 19 -39 38
-52 97 -174 111 -230 3 -16 11 -28 17 -28 6 0 7 -4 4 -10 -3 -5 -9 -10 -14
-10 -4 0 -35 52 -70 115 -35 63 -69 119 -77 126 -8 6 -14 18 -14 25 0 24 -70
22 -215 -6 -311 -59 -367 -61 -390 -17 -12 23 -11 26 3 30 13 4 13 5 -3 6 -21
1 -85 52 -85 68 0 5 -16 22 -35 37 -42 34 -43 42 -10 80 14 16 25 36 25 45 0
9 7 28 14 44 l15 27 -210 0 c-140 0 -209 -3 -209 -11 0 -5 -4 -7 -10 -4 -5 3
-10 1 -10 -5 0 -6 -4 -8 -10 -5 -5 3 -10 -3 -10 -14 0 -11 5 -23 10 -26 5 -3
10 -11 10 -17 0 -7 -6 -6 -15 2 -12 10 -15 10 -15 -3 0 -9 23 -26 55 -41 38
-19 53 -31 49 -41 -4 -9 0 -15 10 -15 9 0 16 -8 16 -17 0 -14 2 -15 9 -4 7 10
13 11 27 2 14 -8 15 -11 4 -11 -12 0 -11 -3 3 -11 24 -14 22 -32 -3 -24 -11 4
-20 2 -20 -4 0 -6 -5 -11 -11 -11 -6 0 -8 7 -5 16 8 20 -20 48 -39 40 -10 -3
-15 1 -15 12 0 11 -3 13 -8 5 -5 -8 -12 -8 -27 3 -17 13 -18 16 -5 25 12 9 12
10 -3 5 -10 -3 -21 -6 -23 -6 -2 0 -4 -7 -4 -16 0 -8 -5 -12 -10 -9 -6 4 -8
11 -5 16 4 5 -3 9 -15 9 -12 0 -18 4 -15 10 4 6 3 10 -2 9 -28 -5 -55 4 -78
25 -14 13 -48 30 -76 36 -46 11 -76 30 -47 30 11 0 11 2 0 9 -8 5 12 10 53 14
36 4 73 11 83 16 12 7 -24 10 -121 11 -85 0 -136 -4 -132 -10 13 -21 -45 -39
-165 -51 -135 -13 -202 -5 -338 42 -76 26 -104 25 -119 -6z m753 -66 c7 -5 14
-19 17 -29 5 -18 0 -20 -40 -20 -28 0 -60 8 -84 22 -37 21 -55 43 -25 32 8 -3
17 0 21 6 8 13 92 5 111 -11z m621 -125 c13 -27 10 -44 -7 -44 -14 0 -32 40
-26 56 8 21 20 17 33 -12z m-283 -12 c2 -4 1 -14 -5 -22 -7 -13 -9 -12 -9 2 0
12 -5 16 -17 12 -15 -5 -16 -4 -3 5 18 13 27 14 34 3z m156 -54 c0 -4 7 -8 15
-8 8 0 15 -4 15 -10 0 -14 -33 -13 -48 2 -9 9 -12 8 -12 -4 0 -20 -19 -27 -45
-18 -18 7 -18 8 7 15 16 4 25 11 22 16 -3 5 -16 6 -29 3 -13 -3 -32 -1 -42 5
-15 9 -13 10 15 11 21 0 32 5 32 15 0 13 5 12 35 -2 19 -9 35 -20 35 -25z
m-372 -56 c9 -7 6 -16 -15 -37 -27 -27 -28 -27 -31 -6 -3 21 13 51 27 51 3 0
12 -4 19 -8z m177 -22 c3 -5 2 -10 -4 -10 -5 0 -13 5 -16 10 -3 6 -2 10 4 10
5 0 13 -4 16 -10z m360 -70 c-4 -23 -2 -41 4 -45 6 -3 11 -14 10 -23 0 -15 -1
-15 -8 1 -4 10 -10 19 -14 19 -23 0 -47 12 -47 24 0 8 -4 13 -8 12 -5 -2 -25
12 -46 30 -20 17 -35 32 -33 32 2 0 19 -5 37 -11 25 -9 34 -9 40 2 7 10 11 10
25 -1 13 -10 13 -15 3 -21 -10 -7 -9 -9 3 -9 26 0 30 12 12 33 -18 19 -17 20
5 8 20 -11 23 -17 17 -51z m75 40 c0 -5 -4 -10 -10 -10 -5 0 -10 5 -10 10 0 6
5 10 10 10 6 0 10 -4 10 -10z m-376 -20 c-22 -9 -29 -6 -20 9 4 6 14 7 23 4
15 -6 14 -7 -3 -13z m-298 -6 c-3 -9 -6 -18 -6 -20 0 -3 -4 -3 -10 1 -11 7 -2
35 12 35 6 0 7 -7 4 -16z m-133 -24 c9 -11 15 -20 13 -20 -7 0 -66 32 -66 36
0 12 38 1 53 -16z m767 -11 c0 -15 4 -19 16 -15 11 4 15 2 11 -7 -3 -7 4 -19
14 -25 10 -7 19 -21 19 -31 0 -17 -3 -18 -36 -8 -31 9 -35 14 -31 36 3 14 -1
31 -9 39 -14 14 -11 32 7 32 5 0 9 -9 9 -21z m-1610 -19 c-19 -13 -30 -13 -30
0 0 6 10 10 23 10 18 0 19 -2 7 -10z m1314 -25 c3 -8 13 -15 23 -16 13 0 12
-3 -6 -10 -25 -10 -41 1 -41 29 0 17 17 15 24 -3z m999 -93 c15 -14 27 -34 27
-44 0 -23 -26 -34 -44 -19 -7 6 -16 9 -19 6 -4 -3 -5 -2 -3 1 3 3 -12 23 -33
45 -30 30 -35 39 -22 43 28 8 65 -5 94 -32z m407 -32 c0 -5 -4 -10 -10 -10 -5
0 -10 5 -10 10 0 6 5 10 10 10 6 0 10 -4 10 -10z m-309 -87 c5 -14 16 -31 24
-39 13 -13 22 -54 12 -54 -2 0 -20 15 -40 34 -26 23 -36 41 -35 58 3 32 27 32
39 1z m82 7 c-3 -11 -7 -20 -9 -20 -2 0 -4 9 -4 20 0 11 4 20 9 20 5 0 7 -9 4
-20z m153 -30 c8 0 14 -5 14 -11 0 -7 -9 -9 -24 -5 -21 5 -23 3 -18 -22 3 -15
10 -30 16 -34 6 -5 7 -8 1 -8 -5 1 -21 10 -35 22 -18 15 -21 22 -11 26 11 4
11 6 0 13 -12 8 -11 11 1 19 8 5 21 8 28 5 8 -3 20 -5 28 -5z m-2886 -150 c0
-5 -5 -10 -11 -10 -5 0 -7 5 -4 10 3 6 8 10 11 10 2 0 4 -4 4 -10z m-53 -135
c-4 -8 -11 -15 -17 -15 -7 0 -7 6 0 21 13 23 26 19 17 -6z m95 0 c-2 -11 -9
-26 -14 -33 -15 -18 -39 27 -25 46 15 19 43 10 39 -13z m131 11 c20 -15 23
-36 5 -36 -7 0 -26 9 -42 19 -28 19 -27 23 14 30 3 0 13 -6 23 -13z m567 -15
c0 -5 -7 -11 -15 -15 -9 -3 -15 0 -15 9 0 8 7 15 15 15 8 0 15 -4 15 -9z
m1586 -228 c3 -10 9 -25 14 -34 7 -13 4 -18 -13 -23 -28 -7 -47 10 -47 45 0
22 5 29 20 29 11 0 23 -8 26 -17z m-994 -30 c25 -22 23 -33 -7 -33 -20 0 -25
5 -25 25 0 29 7 31 32 8z m1151 -27 c18 -14 23 -46 7 -46 -6 0 -13 7 -16 15
-4 8 -9 13 -13 11 -4 -3 -8 4 -8 15 -2 22 5 23 30 5z m-1120 -60 c3 4 30 -20
59 -52 76 -85 244 -254 252 -254 3 0 5 3 5 8 -3 17 2 32 9 32 5 0 50 -30 101
-66 64 -46 95 -75 105 -99 15 -34 49 -61 66 -50 5 3 14 24 20 45 14 51 45 58
35 8 -4 -18 -13 -43 -21 -55 -21 -33 -18 -40 24 -54 38 -13 45 -15 75 -17 10
-1 16 -6 13 -10 -2 -4 3 -8 12 -8 47 -2 72 -22 72 -58 0 -25 -2 -26 -57 -26
-41 0 -54 3 -43 10 12 8 10 10 -10 10 -156 5 -544 -20 -559 -36 -5 -5 -7 -24
-4 -41 4 -23 11 -33 23 -33 28 0 50 -11 50 -25 0 -7 7 -15 15 -19 8 -3 15 -12
15 -21 0 -8 5 -15 10 -15 6 0 10 -7 10 -15 0 -8 5 -15 10 -15 6 0 10 -9 10
-21 0 -13 -4 -18 -12 -13 -7 4 -8 3 -4 -4 4 -7 13 -12 21 -12 7 0 26 -11 42
-23 29 -25 72 -35 183 -43 36 -2 76 -7 89 -10 22 -5 23 -3 11 11 -7 9 -9 15
-4 14 24 -4 30 5 32 51 2 42 -1 50 -15 50 -38 0 -62 -13 -65 -34 -2 -17 -12
-22 -48 -27 -25 -4 -51 -3 -59 1 -20 11 -23 40 -3 40 20 0 52 29 52 48 0 9 6
12 16 8 23 -9 104 14 104 30 0 8 6 11 15 8 8 -4 15 -2 15 2 0 5 25 7 56 6 41
-3 54 -7 50 -17 -3 -8 0 -16 7 -19 7 -2 4 -5 -5 -5 -10 -1 -18 -5 -18 -11 0
-5 8 -6 17 -3 12 5 15 2 10 -10 -4 -11 -2 -14 8 -11 11 4 13 -15 13 -100 0
-73 -4 -106 -12 -106 -7 0 -6 -4 3 -9 9 -6 10 -10 2 -16 -9 -5 -9 -11 0 -22 8
-9 9 -17 3 -21 -15 -11 -17 -92 -2 -92 9 0 10 -3 2 -8 -6 -4 -11 -25 -11 -47
-1 -135 0 -130 -51 -182 -56 -55 -82 -75 -134 -105 -21 -12 -38 -25 -38 -30 0
-4 -25 -19 -55 -33 -30 -15 -55 -30 -55 -33 0 -4 -16 -16 -35 -26 -19 -11 -35
-23 -35 -28 0 -4 -6 -8 -12 -9 -16 0 -64 -59 -49 -59 6 0 11 4 11 8 0 7 23 8
49 3 2 -1 -8 -12 -23 -26 -64 -59 -302 -144 -368 -131 -17 3 -97 38 -176 76
-79 39 -148 70 -153 70 -4 0 -14 6 -21 13 -12 12 -46 29 -143 73 -22 10 -42
21 -45 24 -3 4 -32 20 -65 36 -96 49 -118 64 -161 118 -54 68 -64 90 -110 231
-40 126 -136 329 -149 317 -4 -4 -2 4 5 17 8 15 8 21 1 17 -6 -4 -11 -3 -11 3
0 24 23 21 48 -6 15 -15 36 -35 47 -43 11 -8 7 0 -9 17 -30 34 -28 53 7 53 12
0 17 4 12 8 -6 4 -16 19 -23 33 -19 36 -92 110 -103 103 -5 -3 -9 2 -9 11 0
17 -60 101 -108 151 -7 7 -12 17 -11 21 5 23 -84 178 -132 229 -10 11 -19 23
-19 27 0 10 34 -5 50 -23 8 -9 21 -15 28 -13 7 3 12 -4 12 -16 0 -12 7 -24 15
-27 8 -4 15 -13 15 -20 0 -8 6 -17 14 -20 14 -5 70 -82 71 -96 0 -17 15 -19
16 -2 0 10 3 14 5 7 3 -7 12 -9 19 -7 8 3 24 -2 37 -11 22 -16 22 -17 1 -11
-20 7 -21 5 -11 -29 13 -41 25 -45 34 -11 5 23 3 59 -11 164 -9 65 2 67 47 10
47 -59 205 -218 218 -218 20 0 9 29 -23 57 -17 15 -40 41 -50 56 -10 15 -23
25 -29 21 -7 -4 -8 -3 -4 4 4 6 3 20 -2 29 -5 10 -12 42 -14 70 -5 49 -4 51
11 34 18 -20 39 -17 60 8 12 14 12 14 7 -6 -4 -12 -3 -24 2 -27 5 -3 8 10 6
29 -1 19 2 37 7 41 5 3 9 23 9 45 0 26 5 42 15 46 15 5 61 83 50 83 -3 0 1 10
10 23 8 13 16 37 17 53 1 16 3 32 5 36 7 13 41 -26 48 -55 4 -15 11 -30 16
-33 5 -3 9 -14 9 -25 0 -12 12 -27 30 -37 16 -9 30 -21 30 -25 0 -20 43 -68
56 -63 9 3 40 -19 77 -56 34 -33 78 -67 97 -75 19 -8 42 -24 51 -35 17 -21 17
-21 54 15 22 22 34 41 29 48 -5 9 9 10 59 5 37 -3 67 -3 68 1 0 4 2 58 4 118
5 132 11 173 28 194 7 9 13 30 13 48 -1 21 2 28 10 22 6 -5 14 -6 17 -3z
m-853 -366 c0 -5 -4 -10 -10 -10 -5 0 -10 5 -10 10 0 6 5 10 10 10 6 0 10 -4
10 -10z m-570 -186 c0 -8 -4 -14 -10 -14 -5 0 -10 9 -10 21 0 11 5 17 10 14 6
-3 10 -13 10 -21z m100 22 c0 -3 -4 -8 -10 -11 -5 -3 -10 -1 -10 4 0 6 5 11
10 11 6 0 10 -2 10 -4z m50 0 c0 -11 -19 -15 -25 -6 -3 5 1 10 9 10 9 0 16 -2
16 -4z m-125 -26 c3 -5 1 -10 -4 -10 -6 0 -11 5 -11 10 0 6 2 10 4 10 3 0 8
-4 11 -10z m2233 -134 c2 -10 -1 -23 -7 -29 -16 -16 -34 6 -26 33 8 24 28 22
33 -4z m-2028 -6 c0 -11 -4 -20 -8 -20 -4 0 -8 9 -8 20 0 11 4 20 8 20 4 0 8
-9 8 -20z m-53 -52 c-3 -7 -5 -2 -5 12 0 14 2 19 5 13 2 -7 2 -19 0 -25z m68
-28 c-4 -6 -1 -17 5 -25 10 -12 9 -15 -5 -15 -14 0 -15 -3 -5 -15 10 -13 9
-15 -10 -15 -16 0 -20 4 -16 15 3 8 0 15 -7 16 -9 0 -9 2 1 6 6 2 10 9 6 14
-8 13 4 29 22 29 8 0 12 -5 9 -10z m1544 -50 l19 -40 -27 0 c-36 0 -65 31 -56
59 11 35 42 25 64 -19z m61 21 c0 -15 -16 -22 -34 -15 -25 9 -19 24 9 24 14 0
25 -4 25 -9z m-1653 -138 c-3 -10 -5 -4 -5 12 0 17 2 24 5 18 2 -7 2 -21 0
-30z m2441 -431 c3 -16 -2 -22 -17 -22 -26 0 -36 17 -20 36 16 19 33 13 37
-14z m-2718 -300 c0 -4 -11 -8 -25 -8 -14 0 -25 4 -25 8 0 4 11 8 25 8 14 0
25 -4 25 -8z m-90 -62 c0 -5 -5 -10 -11 -10 -5 0 -7 5 -4 10 3 6 8 10 11 10 2
0 4 -4 4 -10z m-111 -3 c-2 -1 -13 -9 -24 -17 -19 -14 -19 -14 -6 3 7 9 18 17
24 17 6 0 8 -1 6 -3z m618 -3 c-3 -3 -12 -4 -19 -1 -8 3 -5 6 6 6 11 1 17 -2
13 -5z m-83 -23 c3 -5 -1 -11 -9 -14 -9 -4 -12 -1 -8 9 6 16 10 17 17 5z
m-131 -44 c-3 -5 -15 -7 -26 -6 -50 3 -88 -1 -82 -11 3 -5 -1 -10 -10 -10 -9
0 -13 5 -10 10 3 6 -1 10 -9 10 -25 0 -27 -17 -3 -25 60 -21 62 -23 20 -22
-23 1 -41 6 -40 11 1 6 -16 14 -38 17 l-40 6 38 2 c20 0 37 5 37 10 0 10 50
16 127 16 22 0 39 -4 36 -8z m207 -53 c0 -8 9 -23 20 -34 12 -12 18 -25 15
-30 -3 -5 6 -25 21 -44 32 -40 45 -88 18 -65 -32 27 -127 161 -130 184 -1 17
2 22 12 18 10 -4 13 0 8 13 -4 15 -1 14 15 -5 12 -13 21 -29 21 -37z m-481 19
c22 -6 23 -7 6 -13 -26 -9 -71 0 -53 11 16 10 17 10 47 2z m84 -40 c-7 -2 -19
-2 -25 0 -7 3 -2 5 12 5 14 0 19 -2 13 -5z m-263 -19 c0 -8 -5 -12 -10 -9 -6
4 -8 11 -5 16 9 14 15 11 15 -7z m3250 -20 c0 -8 -9 -14 -20 -14 -22 0 -23 1
-14 24 7 18 34 10 34 -10z m-3103 0 c-3 -3 -12 -4 -19 -1 -8 3 -5 6 6 6 11 1
17 -2 13 -5z m961 -8 c59 -30 199 -73 245 -75 19 -1 25 -41 6 -41 -6 0 -9 7
-5 15 3 8 1 15 -4 15 -6 0 -10 -8 -10 -17 -1 -16 -2 -16 -13 -2 -8 11 -23 14
-49 11 -31 -3 -38 -1 -38 13 0 20 -31 17 -38 -5 -5 -13 -3 -13 11 -1 15 12 17
11 17 -8 0 -33 -34 -22 -43 14 -2 11 -3 1 -1 -23 2 -27 0 -41 -6 -37 -6 3 -10
13 -10 21 0 8 -4 14 -10 14 -5 0 -10 8 -10 18 0 20 -17 49 -24 42 -2 -3 -1
-24 4 -47 11 -65 -3 -54 -35 27 -1 3 -7 18 -13 33 -21 50 -17 55 26 33z m47
-163 c-2 -16 -4 -30 -5 -33 0 -3 -5 3 -11 12 -7 13 -6 22 3 33 17 19 17 19 13
-12z m410 -63 c3 -5 -1 -10 -10 -10 -9 0 -13 5 -10 10 3 6 8 10 10 10 2 0 7
-4 10 -10z"/>
<path d="M1930 1859 c-36 -10 -89 -18 -118 -18 -49 -1 -53 -3 -50 -23 3 -21 9
-23 86 -26 72 -2 91 1 138 22 31 14 53 30 49 36 -15 24 -42 26 -105 9z"/>
<path d="M2100 1873 c0 -10 51 -53 62 -53 4 0 -4 14 -19 30 -25 29 -43 38 -43
23z"/>
<path d="M1125 1821 c-7 -12 62 -91 80 -91 6 0 16 4 24 9 12 8 12 11 0 23 -8
8 -21 17 -29 21 -24 11 -54 31 -61 41 -4 4 -10 3 -14 -3z"/>
<path d="M1911 1683 c-1 -6 -4 -19 -7 -27 -4 -12 -2 -15 9 -10 8 3 18 1 21 -4
3 -5 45 -10 93 -11 93 -2 108 7 25 16 -79 7 -87 10 -84 24 2 8 0 11 -4 7 -4
-4 -13 -3 -21 3 -10 9 -13 7 -14 -7 0 -18 -1 -18 -9 1 -5 11 -9 15 -9 8z"/>
<path d="M1880 1669 c0 -5 5 -7 10 -4 6 3 10 8 10 11 0 2 -4 4 -10 4 -5 0 -10
-5 -10 -11z"/>
<path d="M685 1620 c3 -5 8 -10 11 -10 2 0 4 5 4 10 0 6 -5 10 -11 10 -5 0 -7
-4 -4 -10z"/>
<path d="M2173 1623 c9 -2 23 -2 30 0 6 3 -1 5 -18 5 -16 0 -22 -2 -12 -5z"/>
<path d="M1200 1562 c0 -14 62 -24 74 -12 7 7 4 10 -9 10 -11 0 -30 3 -42 6
-13 4 -23 2 -23 -4z"/>
<path d="M808 1544 c-30 -9 -16 -114 15 -114 7 0 23 -14 36 -30 13 -17 31 -30
41 -30 9 0 29 -11 43 -24 35 -32 66 -40 59 -14 -2 10 -7 16 -10 13 -9 -9 -42
27 -42 46 0 21 19 29 43 17 10 -5 17 -20 17 -37 0 -37 22 -79 38 -73 6 2 12
-2 12 -8 0 -19 27 -40 71 -55 51 -18 48 -19 42 4 -4 16 1 18 35 15 34 -2 39 0
35 16 -7 26 14 60 37 60 13 0 18 5 14 15 -4 10 0 15 14 15 11 0 25 7 33 16 8
9 23 14 39 12 24 -4 26 -1 22 25 -6 37 -37 50 -157 66 -49 7 -115 17 -145 23
-30 6 -70 10 -88 9 -19 -1 -48 5 -65 14 -34 17 -110 27 -139 19z m352 -294 c0
-5 -2 -10 -4 -10 -3 0 -8 5 -11 10 -3 6 -1 10 4 10 6 0 11 -4 11 -10z"/>
<path d="M1292 1280 c-7 -12 -17 -18 -22 -15 -6 3 -10 1 -10 -4 0 -15 31 -13
51 2 9 7 14 18 12 25 -7 17 -16 15 -31 -8z"/>
<path d="M2430 1225 c0 -18 19 -40 26 -32 4 4 0 15 -9 24 -9 10 -17 13 -17 8z"/>
<path d="M1736 578 c14 -23 38 -48 46 -48 16 0 8 22 -14 41 -26 21 -43 25 -32
7z"/>
<path d="M1577 553 c11 -31 73 -55 73 -29 1 6 7 0 15 -14 7 -14 17 -25 22 -24
4 0 14 -6 21 -13 18 -17 33 -17 26 1 -7 19 -77 74 -109 86 -40 15 -55 13 -48
-7z"/>
<path d="M656 353 c-9 -9 -7 -33 3 -33 12 0 22 28 12 34 -5 3 -11 3 -15 -1z"/>
<path d="M2390 3553 c0 -5 5 -15 10 -23 7 -12 9 -10 7 8 -1 19 -17 33 -17 15z"/>
<path d="M2430 3550 c0 -5 5 -10 11 -10 5 0 7 5 4 10 -3 6 -8 10 -11 10 -2 0
-4 -4 -4 -10z"/>
<path d="M2592 3540 c0 -14 2 -19 5 -12 2 6 2 18 0 25 -3 6 -5 1 -5 -13z"/>
<path d="M2618 3516 c4 -41 6 -44 30 -41 41 5 52 -9 12 -15 -28 -4 -35 -9 -33
-25 1 -11 0 -14 -3 -7 -7 14 -34 17 -34 3 0 -5 9 -13 20 -16 11 -3 20 -11 20
-17 0 -6 11 -8 25 -5 14 2 23 2 21 -1 -3 -3 2 -11 12 -18 15 -11 10 -12 -30
-11 -31 1 -48 6 -48 15 0 9 -8 10 -27 6 -25 -7 -27 -6 -14 9 12 15 11 17 -6
17 -11 0 -23 -3 -26 -7 -4 -3 -17 -7 -30 -9 -17 -2 -23 3 -24 18 -2 16 1 17
12 8 8 -7 23 -9 32 -5 15 5 11 9 -17 19 -37 12 -80 10 -80 -5 0 -5 6 -9 14 -9
8 0 17 -14 21 -31 l7 -31 59 6 c35 3 59 1 59 -4 0 -6 -25 -10 -55 -10 -57 0
-76 -16 -27 -23 26 -4 -19 -9 -90 -9 -15 -1 -25 -5 -22 -9 3 -5 0 -9 -5 -9 -6
0 -11 4 -11 9 0 11 -50 -1 -50 -11 0 -24 1 -28 10 -28 5 0 7 7 4 15 -4 9 0 15
10 15 10 0 13 -6 10 -15 -4 -9 0 -15 10 -15 9 0 16 3 16 8 0 4 61 7 135 6 79
0 135 3 135 9 0 6 5 5 13 -1 8 -7 23 -6 47 3 65 24 95 33 123 40 22 4 27 10
22 25 -4 12 -2 20 4 20 6 0 11 -4 11 -9 0 -5 8 -12 17 -15 14 -6 14 -3 -3 15
-49 55 -167 164 -180 167 -8 2 -14 8 -14 13 0 5 -19 9 -43 9 l-42 0 3 -44z
m69 -22 c-3 -3 -12 -4 -19 -1 -8 3 -5 6 6 6 11 1 17 -2 13 -5z m53 -28 c0 -3
-4 -8 -10 -11 -5 -3 -10 -1 -10 4 0 6 5 11 10 11 6 0 10 -2 10 -4z m-153 -132
c-3 -3 -12 -4 -19 -1 -8 3 -5 6 6 6 11 1 17 -2 13 -5z m53 -18 c0 -2 -7 -6
-15 -10 -8 -3 -15 -1 -15 4 0 6 7 10 15 10 8 0 15 -2 15 -4z m60 -6 c0 -5 -7
-7 -15 -4 -8 4 -15 8 -15 10 0 2 7 4 15 4 8 0 15 -4 15 -10z"/>
<path d="M2775 3550 c-3 -5 -1 -11 4 -11 34 -4 71 -20 71 -29 0 -5 -7 -7 -15
-4 -27 11 -16 -5 21 -30 20 -13 41 -23 48 -22 6 2 8 1 4 -1 -16 -9 -7 -23 13
-23 11 0 18 -4 15 -8 -2 -4 -1 -13 3 -20 5 -9 13 -7 29 8 11 11 24 20 27 20
11 0 35 28 35 40 0 6 4 9 9 6 5 -3 11 5 13 19 5 22 2 25 -26 25 -19 0 -36 7
-43 18 -13 22 -73 28 -85 9 -6 -9 -8 -9 -8 1 0 15 -106 17 -115 2z"/>
<path d="M2321 3536 c11 -9 69 -14 69 -6 0 6 -16 10 -37 10 -20 0 -34 -2 -32
-4z"/>
<path d="M2560 3530 c0 -5 5 -10 10 -10 6 0 10 5 10 10 0 6 -4 10 -10 10 -5 0
-10 -4 -10 -10z"/>
<path d="M2435 3510 c3 -5 8 -10 11 -10 2 0 4 5 4 10 0 6 -5 10 -11 10 -5 0
-7 -4 -4 -10z"/>
<path d="M2540 3489 c0 -5 5 -7 10 -4 6 3 10 8 10 11 0 2 -4 4 -10 4 -5 0 -10
-5 -10 -11z"/>
<path d="M2590 3487 c0 -8 -9 -17 -20 -20 -11 -3 -20 -11 -20 -17 0 -7 7 -10
16 -6 9 3 22 6 30 6 16 0 19 36 4 45 -5 3 -10 0 -10 -8z"/>
<path d="M2496 3474 c-9 -22 3 -32 14 -14 12 19 12 30 1 30 -5 0 -12 -7 -15
-16z"/>
<path d="M2438 3463 c6 -2 18 -2 25 0 6 3 1 5 -13 5 -14 0 -19 -2 -12 -5z"/>
<path d="M2390 3450 c0 -5 5 -10 10 -10 6 0 10 5 10 10 0 6 -4 10 -10 10 -5 0
-10 -4 -10 -10z"/>
<path d="M2395 3400 c3 -5 8 -10 11 -10 2 0 4 5 4 10 0 6 -5 10 -11 10 -5 0
-7 -4 -4 -10z"/>
<path d="M2425 3390 c-3 -5 1 -10 10 -10 9 0 13 5 10 10 -3 6 -8 10 -10 10 -2
0 -7 -4 -10 -10z"/>
<path d="M2450 3339 c0 -5 5 -7 10 -4 6 3 10 8 10 11 0 2 -4 4 -10 4 -5 0 -10
-5 -10 -11z"/>
<path d="M2875 3311 c-3 -6 -4 -15 -1 -20 8 -13 48 -1 43 13 -5 15 -34 20 -42
7z"/>
<path d="M2540 3254 l-35 -13 36 0 c25 -1 36 3 36 14 0 8 -1 14 -1 14 -1 -1
-17 -7 -36 -15z"/>
<path d="M3440 3245 c0 -8 4 -15 10 -15 5 0 7 7 4 15 -4 8 -8 15 -10 15 -2 0
-4 -7 -4 -15z"/>
<path d="M3408 2883 c6 -2 18 -2 25 0 6 3 1 5 -13 5 -14 0 -19 -2 -12 -5z"/>
<path d="M3380 2860 c-14 -4 -18 -9 -10 -9 10 -1 11 -4 3 -9 -13 -8 -6 -62 8
-62 13 0 11 24 -3 38 -9 9 -8 12 6 12 9 0 14 5 11 10 -3 6 1 10 9 10 8 0 18 5
21 10 7 11 -9 11 -45 0z"/>
<path d="M3420 2836 c0 -2 7 -6 15 -10 8 -3 15 -1 15 4 0 6 -7 10 -15 10 -8 0
-15 -2 -15 -4z"/>
<path d="M3295 2600 c-3 -5 -1 -10 4 -10 6 0 11 5 11 10 0 6 -2 10 -4 10 -3 0
-8 -4 -11 -10z"/>
<path d="M3271 2321 c-8 -5 -9 -11 -3 -15 5 -3 15 1 22 9 14 16 3 20 -19 6z"/>
<path d="M3220 2225 c0 -8 5 -15 10 -15 6 0 10 4 10 9 0 5 8 12 18 14 10 3 6
5 -10 6 -19 1 -28 -4 -28 -14z"/>
<path d="M3170 2197 c0 -8 6 -14 14 -14 8 0 12 6 9 14 -3 7 -9 13 -14 13 -5 0
-9 -6 -9 -13z"/>
<path d="M378 1565 c-3 -3 -3 -24 -1 -46 3 -27 1 -39 -6 -34 -6 3 -12 18 -12
33 -1 19 -3 21 -6 9 -8 -30 7 -87 21 -87 17 0 26 31 26 88 0 38 -8 51 -22 37z"/>
<path d="M372 1370 c0 -14 2 -19 5 -12 2 6 2 18 0 25 -3 6 -5 1 -5 -13z"/>
<path d="M361 1324 c0 -11 3 -14 6 -6 3 7 2 16 -1 19 -3 4 -6 -2 -5 -13z"/>
<path d="M348 1215 c-11 -58 -10 -81 3 -68 5 5 9 32 7 59 l-3 49 -7 -40z"/>
<path d="M247 1063 c-13 -12 -7 -43 8 -43 8 0 15 6 15 13 0 18 -15 38 -23 30z"/>
<path d="M430 966 c0 -8 13 -25 29 -37 16 -12 32 -31 35 -43 10 -38 39 -67 56
-56 13 8 12 10 -2 10 -10 0 -18 8 -18 17 0 9 -7 24 -16 34 -9 10 -23 33 -32
51 -18 35 -52 51 -52 24z"/>
<path d="M280 724 c0 -11 27 -32 50 -39 25 -7 25 -7 5 12 -21 20 -55 37 -55
27z"/>
<path d="M1445 150 c3 -5 12 -7 20 -3 21 7 19 13 -6 13 -11 0 -18 -4 -14 -10z"/>
</g>
</svg>
